<svg xmlns="http://www.w3.org/2000/svg" xmlns:xlink="http://www.w3.org/1999/xlink" width="500" zoomAndPan="magnify" viewBox="0 0 375 374.999991" height="500" preserveAspectRatio="xMidYMid meet" version="1.0"><defs><clipPath id="139ed1a214"><path d="M 6.320312 6.320312 L 368.570312 6.320312 L 368.570312 368.570312 L 6.320312 368.570312 Z M 6.320312 6.320312 " clip-rule="nonzero"/></clipPath></defs><g clip-path="url(#139ed1a214)"><path fill="#ffffff" d="M 87.8125 6.320312 L 286.871094 6.320312 C 309.363281 6.320312 329.738281 15.445312 344.589844 30.300781 C 359.234375 44.945312 368.570312 65.53125 368.570312 87.8125 L 368.570312 286.871094 C 368.570312 309.363281 359.234375 329.738281 344.589844 344.589844 C 329.738281 359.234375 309.363281 368.570312 286.871094 368.570312 L 87.8125 368.570312 C 65.53125 368.570312 44.945312 359.234375 30.300781 344.589844 C 15.445312 329.738281 6.320312 309.363281 6.320312 286.871094 L 6.320312 87.8125 C 6.320312 65.53125 15.445312 44.945312 30.300781 30.300781 C 44.945312 15.445312 65.53125 6.320312 87.8125 6.320312 Z M 286.871094 38.578125 L 87.8125 38.578125 C 74.230469 38.578125 61.921875 44.097656 53.007812 53.007812 C 44.097656 61.921875 38.578125 74.230469 38.578125 87.8125 L 38.578125 286.871094 C 38.578125 300.453125 44.097656 312.757812 53.007812 321.671875 C 61.921875 330.796875 74.230469 336.316406 87.8125 336.316406 L 286.871094 336.316406 C 300.453125 336.316406 312.757812 330.796875 321.671875 321.671875 C 330.796875 312.757812 336.316406 300.453125 336.316406 286.871094 L 336.316406 87.8125 C 336.316406 74.230469 330.796875 61.921875 321.671875 53.007812 C 312.757812 44.097656 300.453125 38.578125 286.871094 38.578125 Z M 286.871094 38.578125 " fill-opacity="1" fill-rule="nonzero"/></g><path fill="#ffffff" d="M 288.992188 69.5625 C 293.449219 69.5625 297.691406 71.257812 300.453125 74.230469 C 303.421875 77.203125 305.332031 81.234375 305.332031 85.691406 C 305.332031 90.148438 303.421875 94.390625 300.453125 97.148438 C 297.691406 100.121094 293.449219 102.03125 288.992188 102.03125 C 284.535156 102.03125 280.503906 100.121094 277.53125 97.148438 C 274.5625 94.390625 272.863281 90.148438 272.863281 85.691406 C 272.863281 81.234375 274.5625 77.203125 277.53125 74.230469 C 280.503906 71.257812 284.535156 69.5625 288.992188 69.5625 Z M 288.992188 69.5625 " fill-opacity="1" fill-rule="nonzero"/><path fill="#ffffff" d="M 187.339844 99.484375 C 211.746094 99.484375 233.605469 109.457031 249.519531 125.160156 C 265.4375 141.078125 275.410156 163.148438 275.410156 187.339844 C 275.410156 211.746094 265.4375 233.605469 249.519531 249.519531 C 233.605469 265.4375 211.746094 275.410156 187.339844 275.410156 C 163.148438 275.410156 141.078125 265.4375 125.160156 249.519531 C 109.457031 233.605469 99.484375 211.746094 99.484375 187.339844 C 99.484375 163.148438 109.457031 141.078125 125.160156 125.160156 C 141.078125 109.457031 163.148438 99.484375 187.339844 99.484375 Z M 226.601562 148.292969 C 216.625 138.320312 202.621094 131.953125 187.339844 131.953125 C 172.0625 131.953125 158.265625 138.320312 148.292969 148.292969 C 138.320312 158.265625 131.953125 172.0625 131.953125 187.339844 C 131.953125 202.621094 138.320312 216.625 148.292969 226.601562 C 158.265625 236.574219 172.0625 242.730469 187.339844 242.730469 C 202.621094 242.730469 216.625 236.574219 226.601562 226.601562 C 236.574219 216.625 242.730469 202.621094 242.730469 187.339844 C 242.730469 172.0625 236.574219 158.265625 226.601562 148.292969 Z M 226.601562 148.292969 " fill-opacity="1" fill-rule="nonzero"/></svg>